<svg xmlns="http://www.w3.org/2000/svg" viewBox="0 0 444.53 187.5"><defs><style>.cls-1{fill:#027fff;}.cls-2{font-size:120px;}.cls-2,.cls-4{font-family:MyriadPro-Regular, Myriad Pro;}.cls-3{letter-spacing:-0.01em;}.cls-4{font-size:27.17px;}.cls-5{letter-spacing:-0.03em;}</style></defs><g id="Layer_2" data-name="Layer 2"><g id="Layer_1-2" data-name="Layer 1"><path class="cls-1" d="M195.9,156.52l.94-1.12-10.26-8.64-.94,1.12c-13.91,16.52-34.93,25.25-60.78,25.25-50.72,0-84.79-31.46-84.79-78.28,0-2.19.08-4.42.25-6.66H64v0H173.43L173,84.49a10.44,10.44,0,0,0-.26-2l-.24-1.85C168.86,53,147.37,34.49,119,34.49c-26.36,0-46.41,15.41-52.61,40.29H42.41C50.83,39.55,80.69,16.89,119,16.89c42.07,0,72.09,26.77,76.49,68.21l.36,3.41,13.33-1.41-.36-3.41C203.69,35.71,167.6,3.48,119,3.48c-45.58,0-81.74,28.6-90.34,71.3H15.68C20.87,49.89,34.1,27.86,53.07,12.59l2.67-2.14L47.33,0,44.66,2.15C21,21.22,5.49,49.06,1.07,80.56L0,88.19H26.89c-.16,2.35-.23,4.54-.23,6.66,0,26,9.59,49.36,27,65.86,17.86,16.9,42.47,25.83,71.18,25.83,29.93,0,54.5-10.38,71-30M80.3,74.78C85.9,57.91,100.21,47.9,119,47.9c19.09,0,33.37,10,38.55,26.88Z"/><path class="cls-1" d="M64,100.55l.75,3.86a9.85,9.85,0,0,0,.54,2.84l.25,1.27c5.35,27.85,28.43,45.14,60.24,45.14h1.46V140.25h-1.46c-21.57,0-38.13-9.78-44.75-26.29H223.57c-5.19,24.89-18.42,46.92-37.39,62.19l-1.14.91,8.41,10.45,1.14-.92c23.69-19.06,39.17-46.91,43.59-78.4l1.07-7.64Z"/><text class="cls-2" transform="translate(82.25 100.53)"><tspan class="cls-3">A</tspan><tspan x="72" y="0">dmin</tspan></text><text class="cls-4" transform="translate(153.49 133.8)"><tspan class="cls-5">P</tspan><tspan x="13.75" y="0">anel</tspan></text></g></g></svg>