<svg xmlns="http://www.w3.org/2000/svg" viewBox="0 0 494.96 390.24"><defs><style>.cls-1{fill:#027fff;stroke:#027fff;stroke-width:6.19px;}.cls-1,.cls-2,.cls-4{stroke-miterlimit:10;}.cls-2{font-size:120px;stroke:#fff;stroke-width:4px;}.cls-2,.cls-4{fill:#fff;font-family:MyriadPro-Regular, Myriad Pro;}.cls-3{letter-spacing:-0.01em;}.cls-4{font-size:43.6px;stroke:#f6fafb;stroke-width:2px;}.cls-5{letter-spacing:-0.03em;}</style></defs><g id="Layer_2" data-name="Layer 2"><g id="Layer_1-2" data-name="Layer 1"><path class="cls-1" d="M402.16,322.88l1.92-2.27L383.2,303C289.57,416.62,60.71,339.11,85.47,183.8h48.18v0H356.43c-.14-128.19-188-151-218-27.35H89.72C126-11.66,397.85,5.2,402,184.44l27.15-2.88C421.39-31,98.38-46.13,61.67,156.5H35.32c11-53.17,40.05-99.38,81.54-131L99.74,4.27C44.06,46.17,10.19,112.27,3.4,183.8H58.13C38.17,368.07,289.76,451.43,402.16,322.88ZM166.87,156.5c19.07-72.26,139.21-72.38,157.16,0Z"/><path class="cls-1" d="M133.71,209c6.36,65.19,56,110.09,128.71,108.11v-27.3c-44.24,1.06-80.56-19.05-94.06-53.51l290.13,0c-10.79,51.72-38.54,97.2-78.42,128.46l17.11,21.26c53.94-41.71,86.52-107,93.23-177Z"/><text class="cls-2" transform="translate(132.68 204.97)"><tspan class="cls-3">A</tspan><tspan x="72" y="0">dmin</tspan></text><text class="cls-4" transform="translate(268.89 318.63)"><tspan class="cls-5">P</tspan><tspan x="22.06" y="0">anel</tspan></text></g></g></svg>