<?xml version="1.0" encoding="utf-8"?>
<!-- Generator: Adobe Illustrator 26.3.1, SVG Export Plug-In . SVG Version: 6.00 Build 0)  -->
<svg version="1.1" id="Layer_1" xmlns="http://www.w3.org/2000/svg" xmlns:xlink="http://www.w3.org/1999/xlink" x="0px" y="0px"
	 viewBox="0 0 495 390.2" style="enable-background:new 0 0 495 390.2;" xml:space="preserve">
<style type="text/css">
	.st0{fill:#027FFF;stroke:#027FFF;stroke-width:6.19;stroke-miterlimit:10;}
	.st1{fill:#FFFFFF;}
	.st2{font-family:'ArialMT';}
	.st3{font-size:120px;}
	.st4{letter-spacing:-1;}
	.st5{stroke:#000000;stroke-width:2;stroke-miterlimit:10;}
	.st6{font-size:43.6px;}
	.st7{fill:#020202;stroke:#000000;stroke-miterlimit:10;}
	.st8{font-size:45.0209px;}
	.st9{stroke:#000000;stroke-miterlimit:10;}
</style>
<g id="Layer_2_00000005954450039363679780000007550337945624111779_">
	<g id="Layer_1-2">
		<path class="st0" d="M403.2,324l1.9-2.3l-20.9-17.6C290.6,417.7,61.7,340.2,86.5,184.9h48.2l0,0h222.8
			c-0.1-128.2-188-151-218-27.4H90.7C127-10.6,398.9,6.3,403,185.5l27.1-2.9C422.4-29.9,99.4-45,62.7,157.6H36.3
			c11-53.2,40-99.4,81.5-131L100.7,5.4c-55.7,41.9-89.5,108-96.3,179.5h54.7C39.2,369.2,290.8,452.5,403.2,324z M167.9,157.6
			c19.1-72.3,139.2-72.4,157.2,0H167.9z"/>
		<path class="st0" d="M134.7,210.1c6.4,65.2,56,110.1,128.7,108.1v-27.3c-44.2,1.1-80.6-19-94.1-53.5h290.1
			c-10.8,51.7-38.5,97.2-78.4,128.5l17.1,21.3c53.9-41.7,86.5-107,93.2-177L134.7,210.1z"/>
		<text transform="matrix(1 0 0 1 133.68 206.0793)" class="st1 st2 st3 st4">A</text>
		<text transform="matrix(1 0 0 1 133.68 206.0793)" class="st5 st2 st3 st4">A</text>
		<text transform="matrix(1 0 0 1 205.68 206.0793)" class="st1 st2 st3">dmin</text>
		<text transform="matrix(1 0 0 1 205.68 206.0793)" class="st5 st2 st3">dmin</text>
		<text transform="matrix(1 0 0 1 266.5472 320.506)" class="st1 st2 st6 st4">P</text>
		<text transform="matrix(0.9627 0 0 1 265.0629 320.6849)" class="st7 st2 st8 st4">P</text>
		<text transform="matrix(1 0 0 1 290.8611 321.7511)" class="st9 st2 st6">anel</text>
	</g>
</g>
</svg>
