<svg xmlns="http://www.w3.org/2000/svg" viewBox="0 0 493.82 390.33"><defs><style>.cls-1{fill:#027fff;stroke:#027fff;stroke-width:6.19px;}.cls-1,.cls-4,.cls-6,.cls-8,.cls-9{stroke-miterlimit:10;}.cls-2,.cls-3,.cls-4,.cls-5,.cls-6,.cls-7,.cls-8,.cls-9{isolation:isolate;}.cls-3,.cls-4,.cls-5,.cls-6{font-size:120px;}.cls-3,.cls-5,.cls-7{fill:#fff;}.cls-3,.cls-4,.cls-5,.cls-6,.cls-7,.cls-8,.cls-9{font-family:ArialMT, Arial;}.cls-3,.cls-4{letter-spacing:-0.06em;}.cls-4,.cls-6,.cls-8,.cls-9{stroke:#000;}.cls-4,.cls-6{stroke-width:2px;}.cls-7,.cls-9{font-size:43.6px;}.cls-7{letter-spacing:-0.05em;}.cls-8{font-size:45.02px;fill:#020202;letter-spacing:-0.05em;}</style></defs><g id="Layer_2" data-name="Layer 2"><g id="Layer_1-2" data-name="Layer 1"><g id="Layer_2-2" data-name="Layer 2"><g id="Layer_1-2-2" data-name="Layer 1-2"><path class="cls-1" d="M402.16,322.88l1.92-2.27L383.2,303C289.57,416.62,60.71,339.11,85.47,183.8h271c-.14-128.19-188-151-218-27.35H89.72C126-11.66,397.85,5.2,402,184.44l27.15-2.88C421.39-31,98.38-46.13,61.67,156.5H35.32c11-53.17,40.05-99.38,81.54-131L99.74,4.27C44.06,46.17,10.19,112.27,3.4,183.8H58.13C38.17,368.07,289.76,451.43,402.16,322.88ZM166.87,156.5c19.07-72.26,139.21-72.38,157.16,0Z"/><path class="cls-1" d="M133.71,209c6.36,65.19,56,110.09,128.71,108.11v-27.3c-44.24,1.06-80.56-19.05-94.06-53.51H458.49C447.7,288,420,333.5,380.07,364.76L397.18,386c53.94-41.71,86.52-107,93.23-177Z"/><g class="cls-2"><text class="cls-3" transform="translate(132.68 204.97)">A</text><text class="cls-4" transform="translate(132.68 204.97)">A</text><text class="cls-5" transform="translate(204.68 204.97)">dmin</text><text class="cls-6" transform="translate(204.68 204.97)">dmin</text></g><g class="cls-2"><text class="cls-7" transform="translate(265.55 319.4)">P</text><text class="cls-8" transform="translate(264.07 319.58) scale(0.96 1)">P</text><text class="cls-9" transform="translate(289.86 320.64)">anel</text></g></g></g></g></g></svg>